2014031_C4_02_grf
version=1
nRows=37
nColumns=19
inDegrees=no
endheader
time	ground_force_1_vx	ground_force_1_vy	ground_force_1_vz	ground_force_1_px	ground_force_1_py	ground_force_1_pz	ground_force_1_mx	ground_force_1_my	ground_force_1_mz	ground_force_2_vx	ground_force_2_vy	ground_force_2_vz	ground_force_2_px	ground_force_2_py	ground_force_2_pz	ground_force_2_mx	ground_force_2_my	ground_force_2_mz
      0.42500000	     -2.62357609	    564.66144323	     29.25463952	      0.16116216	     -0.00200000	     -0.31204418	      0.00000000	      0.42079245	      0.00000000	      0.00000000	      0.00000000	      0.00000000	      0.00000000	      0.00000000	      0.00000000	      0.00000000	      0.00000000	      0.00000000
      0.42600000	     -2.26876442	    565.33688307	     29.29072082	      0.16146629	     -0.00200000	     -0.31206025	      0.00000000	      0.39414115	      0.00000000	      0.00000000	      0.00000000	      0.00000000	      0.00000000	      0.00000000	      0.00000000	      0.00000000	      0.00000000	      0.00000000
      0.42700000	     -1.90900115	    566.01992249	     29.32862099	      0.16176758	     -0.00200000	     -0.31207498	      0.00000000	      0.36738565	      0.00000000	      0.00000000	      0.00000000	      0.00000000	      0.00000000	      0.00000000	      0.00000000	      0.00000000	      0.00000000	      0.00000000
      0.42800000	     -1.54526264	    566.70898199	     29.36807834	      0.16206661	     -0.00200000	     -0.31208872	     -0.00000000	      0.34056392	      0.00000000	      0.00000000	      0.00000000	      0.00000000	      0.00000000	      0.00000000	      0.00000000	      0.00000000	      0.00000000	      0.00000000
      0.42900000	     -1.17654720	    567.40570068	     29.40961905	      0.16236281	     -0.00200000	     -0.31210129	      0.00000000	      0.31368312	      0.00000000	      0.00000000	      0.00000000	      0.00000000	      0.00000000	      0.00000000	      0.00000000	      0.00000000	      0.00000000	      0.00000000
      0.43000000	     -0.80384430	    568.10861826	     29.45294045	      0.16265677	     -0.00200000	     -0.31211299	      0.00000000	      0.28677423	      0.00000000	      0.00000000	      0.00000000	      0.00000000	      0.00000000	      0.00000000	      0.00000000	      0.00000000	      0.00000000	      0.00000000
      0.43100000	     -0.42614696	    568.81946325	     29.49863113	      0.16294792	     -0.00200000	     -0.31212367	      0.00000000	      0.25985653	      0.00000000	      0.00000000	      0.00000000	      0.00000000	      0.00000000	      0.00000000	      0.00000000	      0.00000000	      0.00000000	      0.00000000
      0.43200000	     -0.04444448	    569.53668594	     29.54632975	      0.16323684	     -0.00200000	     -0.31213357	      0.00000000	      0.23295353	      0.00000000	      0.00000000	      0.00000000	      0.00000000	      0.00000000	      0.00000000	      0.00000000	      0.00000000	      0.00000000	      0.00000000
      0.43300000	      0.34227618	    570.26219368	     29.59667891	      0.16352298	     -0.00200000	     -0.31214253	      0.00000000	      0.20609888	      0.00000000	      0.00000000	      0.00000000	      0.00000000	      0.00000000	      0.00000000	      0.00000000	      0.00000000	      0.00000000	      0.00000000
      0.43400000	      0.73301856	    570.99437714	     29.64925952	      0.16380687	     -0.00200000	     -0.31215078	      0.00000000	      0.17930493	      0.00000000	      0.00000000	      0.00000000	      0.00000000	      0.00000000	      0.00000000	      0.00000000	      0.00000000	      0.00000000	      0.00000000
      0.43500000	      1.12879381	    571.73517346	     29.70476449	      0.16408795	     -0.00200000	     -0.31215811	      0.00000000	      0.15261381	      0.00000000	      0.00000000	      0.00000000	      0.00000000	      0.00000000	      0.00000000	      0.00000000	      0.00000000	      0.00000000	      0.00000000
      0.43600000	      1.52859802	    572.48300314	     29.76271883	      0.16436677	     -0.00200000	     -0.31216471	      0.00000000	      0.12602674	      0.00000000	      0.00000000	      0.00000000	      0.00000000	      0.00000000	      0.00000000	      0.00000000	      0.00000000	      0.00000000	      0.00000000
      0.43700000	      1.93343742	    573.24001193	     29.82386388	      0.16464279	     -0.00200000	     -0.31217036	      0.00000000	      0.09959936	      0.00000000	      0.00000000	      0.00000000	      0.00000000	      0.00000000	      0.00000000	      0.00000000	      0.00000000	      0.00000000	      0.00000000
      0.43800000	      2.34230002	    574.00447130	     29.88765202	      0.16491656	     -0.00200000	     -0.31217528	      0.00000000	      0.07332494	     -0.00000000	      0.00000000	      0.00000000	      0.00000000	      0.00000000	      0.00000000	      0.00000000	      0.00000000	      0.00000000	      0.00000000
      0.43900000	      2.75617430	    574.77855682	     29.95484322	      0.16518754	     -0.00200000	     -0.31217928	      0.00000000	      0.04727288	      0.00000000	      0.00000000	      0.00000000	      0.00000000	      0.00000000	      0.00000000	      0.00000000	      0.00000000	      0.00000000	      0.00000000
      0.44000000	      3.17403697	    575.56056976	     30.02482094	      0.16545627	     -0.00200000	     -0.31218253	     -0.00000000	      0.02142397	     -0.00000000	      0.00000000	      0.00000000	      0.00000000	      0.00000000	      0.00000000	      0.00000000	      0.00000000	      0.00000000	      0.00000000
      0.44100000	      3.59685277	    576.35280490	     30.09834420	      0.16572225	     -0.00200000	     -0.31218485	     -0.00000000	     -0.00413755	      0.00000000	      0.00000000	      0.00000000	      0.00000000	      0.00000000	      0.00000000	      0.00000000	      0.00000000	      0.00000000	      0.00000000
      0.44200000	      4.02360316	    577.15338469	     30.17473780	      0.16598602	     -0.00200000	     -0.31218646	      0.00000000	     -0.02944354	      0.00000000	      0.00000000	      0.00000000	      0.00000000	      0.00000000	      0.00000000	      0.00000000	      0.00000000	      0.00000000	      0.00000000
      0.44300000	      4.45522997	    577.96487212	     30.25473468	      0.16624705	     -0.00200000	     -0.31218716	      0.00000000	     -0.05439976	      0.00000000	      0.00000000	      0.00000000	      0.00000000	      0.00000000	      0.00000000	      0.00000000	      0.00000000	      0.00000000	      0.00000000
      0.44400000	      4.89072269	    578.78524065	     30.33760004	      0.16650590	     -0.00200000	     -0.31218712	      0.00000000	     -0.07905505	      0.00000000	      0.00000000	      0.00000000	      0.00000000	      0.00000000	      0.00000000	      0.00000000	      0.00000000	      0.00000000	      0.00000000
      0.44500000	      5.33100008	    579.61720228	     30.42400442	      0.16676202	     -0.00200000	     -0.31218609	      0.00000000	     -0.10331320	      0.00000000	      0.00000000	      0.00000000	      0.00000000	      0.00000000	      0.00000000	      0.00000000	      0.00000000	      0.00000000	      0.00000000
      0.44600000	      5.77506470	    580.45870066	     30.51318228	      0.16701596	     -0.00200000	     -0.31218422	      0.00000000	     -0.12723990	      0.00000000	      0.00000000	      0.00000000	      0.00000000	      0.00000000	      0.00000000	      0.00000000	      0.00000000	      0.00000000	      0.00000000
      0.44700000	      6.22379850	    581.31253719	     30.60571291	      0.16726718	     -0.00200000	     -0.31218126	      0.00000000	     -0.15073727	      0.00000000	      0.00000000	      0.00000000	      0.00000000	      0.00000000	      0.00000000	      0.00000000	      0.00000000	      0.00000000	      0.00000000
      0.44800000	      6.67621102	    582.17644691	     30.70081398	      0.16751621	     -0.00200000	     -0.31217741	      0.00000000	     -0.17388151	      0.00000000	      0.00000000	      0.00000000	      0.00000000	      0.00000000	      0.00000000	      0.00000000	      0.00000000	      0.00000000	      0.00000000
      0.44900000	      7.13314489	    583.05338025	     30.79895210	      0.16776253	     -0.00200000	     -0.31217238	      0.00000000	     -0.19657670	      0.00000000	      0.00000000	      0.00000000	      0.00000000	      0.00000000	      0.00000000	      0.00000000	      0.00000000	      0.00000000	      0.00000000
      0.45000000	      7.59363268	    583.94092321	     30.89934960	      0.16800666	     -0.00200000	     -0.31216639	      0.00000000	     -0.21891194	      0.00000000	      0.00000000	      0.00000000	      0.00000000	      0.00000000	      0.00000000	      0.00000000	      0.00000000	      0.00000000	      0.00000000
      0.45100000	      8.05847719	    584.84205604	     31.00231849	      0.16824807	     -0.00200000	     -0.31215911	      0.00000000	     -0.24080383	      0.00000000	      0.00000000	      0.00000000	      0.00000000	      0.00000000	      0.00000000	      0.00000000	      0.00000000	      0.00000000	      0.00000000
      0.45200000	      8.52673966	    585.75427532	     31.10710159	      0.16848730	     -0.00200000	     -0.31215076	      0.00000000	     -0.26235068	      0.00000000	      0.00000000	      0.00000000	      0.00000000	      0.00000000	      0.00000000	      0.00000000	      0.00000000	      0.00000000	      0.00000000
      0.45300000	      8.99919542	    586.68062091	     31.21380880	      0.16872380	     -0.00200000	     -0.31214099	      0.00000000	     -0.28348608	      0.00000000	      0.00000000	      0.00000000	      0.00000000	      0.00000000	      0.00000000	      0.00000000	      0.00000000	      0.00000000	      0.00000000
      0.45400000	      9.47494339	    587.61847019	     31.32174909	      0.16895814	     -0.00200000	     -0.31213001	      0.00000000	     -0.30431339	      0.00000000	      0.00000000	      0.00000000	      0.00000000	      0.00000000	      0.00000000	      0.00000000	      0.00000000	      0.00000000	      0.00000000
      0.45500000	      9.95473331	    588.57086301	     31.43079951	      0.16918977	     -0.00200000	     -0.31211745	      0.00000000	     -0.32478738	      0.00000000	      0.00000000	      0.00000000	      0.00000000	      0.00000000	      0.00000000	      0.00000000	      0.00000000	      0.00000000	      0.00000000
      0.45600000	     10.43769717	    589.53499794	     31.54037520	      0.16941923	     -0.00200000	     -0.31210356	      0.00000000	     -0.34500913	      0.00000000	      0.00000000	      0.00000000	      0.00000000	      0.00000000	      0.00000000	      0.00000000	      0.00000000	      0.00000000	      0.00000000
      0.45700000	     10.92456002	    590.51385522	     31.65012039	      0.16964599	     -0.00200000	     -0.31208799	     -0.00000000	     -0.36495487	      0.00000000	      0.00000000	      0.00000000	      0.00000000	      0.00000000	      0.00000000	      0.00000000	      0.00000000	      0.00000000	      0.00000000
      0.45800000	     11.41449064	    591.50457382	     31.75960109	      0.16987059	     -0.00200000	     -0.31207104	      0.00000000	     -0.38471356	      0.00000000	      0.00000000	      0.00000000	      0.00000000	      0.00000000	      0.00000000	      0.00000000	      0.00000000	      0.00000000	      0.00000000
      0.45900000	     11.90819871	    592.51013398	     31.86823614	      0.17009250	     -0.00200000	     -0.31205235	      0.00000000	     -0.40428162	      0.00000000	      0.00000000	      0.00000000	      0.00000000	      0.00000000	      0.00000000	      0.00000000	      0.00000000	      0.00000000	      0.00000000
      0.46000000	     12.40488980	    593.52755547	     31.97576851	      0.17031225	     -0.00200000	     -0.31203224	      0.00000000	     -0.42373223	      0.00000000	      0.00000000	      0.00000000	      0.00000000	      0.00000000	      0.00000000	      0.00000000	      0.00000000	      0.00000000	      0.00000000
      0.46100000	     12.90526846	    594.55987811	     32.08140470	      0.17052933	     -0.00200000	     -0.31201032	      0.00000000	     -0.44308217	      0.00000000	      0.00000000	      0.00000000	      0.00000000	      0.00000000	      0.00000000	      0.00000000	      0.00000000	      0.00000000	      0.00000000
